<mxfile host="www.draw.io" modified="2020-07-10T09:09:52.379Z" agent="5.0 (Macintosh; Intel Mac OS X 10_14_6) AppleWebKit/537.36 (KHTML, like Gecko) Chrome/78.0.3904.108 Safari/537.36" etag="ygJbxIYoFeSKRhwwhNAW" version="13.1.0" type="github">
  <diagram id="4lNRj7Rey22mjOCSijaa" name="Page-1">
    <mxGraphModel dx="1186" dy="715" grid="0" gridSize="10" guides="1" tooltips="1" connect="1" arrows="1" fold="1" page="0" pageScale="1" pageWidth="827" pageHeight="1169" background="#FFFFFF" math="0" shadow="0">
      <root>
        <mxCell id="0" />
        <mxCell id="1" parent="0" />
        <mxCell id="9g9j-pvKP1COG3EwqrGd-6" value="" style="shape=image;verticalLabelPosition=bottom;labelBackgroundColor=#ffffff;verticalAlign=top;aspect=fixed;imageAspect=0;image=data:image/png,iVBORw0KGgoAAAANSUhEUgAAAgAAAAIACAYAAAD0eNT6AABjO0lEQVR42u2dCZwcZZn/IdOT6XTa5hIFxYPDE1f+gi4m6a7uJJyyilfkkBVhccWDBZHVheUIIsplLkKSmcwkmZ5O0DEgh4tcIRDO3JnEJDPdPUFEwsqCIiScOf7v21M1VGa6q97qruqu6v7O51OfkND9nXrfet/n96uq932evfbihx9++OGHH374cfpz3HGpvcUxwnTsDQ8ePHjw4MELFs/pL28aesCDBw8ePHjwgsVz6jpC4mg2HaFy3Qc8ePDgwYMHr/q8cn65/IUjTUdzhY2BBw8ePHjw4FWRV84vbxFH2HS0VNgYePDgwYMHD14VeeX8cvkLR5mOcIWNgQcPHjx48OBVkWcwVT8oVxdGxDHadMi/jyjzF8ODBw8ePHjwqs/bW180OEL1l8tfGDUdoytsDDx48ODBgwevujxjAaG9ATD98pjpiFbYmCg8ePDgwYMHr6q8vU27BqwNgP7hiOkE9tH/rKQxBmcfePDgwYMHD15VeMYCwpEmA7C31YfDpkcPMTobHjx48ODBCyTP2DUwaADsnMKoIe8e6Gx48ODBgwcvWLyIadeANAAhu3cEYZMBGE1nw4MHDx48eIHjGRpuGIBmq0f/Id0hGAYgQmfDgwcPHjx4geOZdw2MskwapC8KaDYZgDCdDQ8ePHjw4AWSFzMZgLDdoj+zAagkXSEXDx48ePDgwastzzAAEUs917/UZNojiPjDgwcPHjx4weXFlNbwmQxACPGHBw8ePHjwAs9T271nMgCIPzx48ODBg9covAorCtHZ8ODBgwcPXsB5dA48ePDgwYOH+NM58ODBgwcPHuJPZ8ODBw8ePHiIP50NDx48ePDgIf7w4MGDBw8ePMQfHjx48ODBg+dH8Vfe/Udnw4MHDx48eHXBM1L/KycJitLZ8ODBgwcPXuDFP6RkAEz1hGN0Njx48ODBgxdo8Tfq/VgbAP3DEf3uP0Znw4MHDx48eIEV/xa92m+zZep//cNh/e4/aqotTGfDgwcPHjx4weKF9WPQANg5hVEmAxCls+HBgwcPHrzA8SK6nhsGIGT3jiBsMgCj6Wx48ODBgwcvcDxDww0D0Gz16D+kOwTDAETobHjw4MGDBy9wPOPpvWEAWqzEv0l3ByNN7wvobHjw4MGDBy94vJjJAITtFv2ZDUCLcpYgOhsePHjw4MHzG88wABFLPde/1GTaI4j4w4MHDx48eMHlxZTW8JkMQAjxhwcPHjx48ALPU9u9ZzIAiD88ePDgwYPXKLxyhZ/OhgcPHjx48OqDR+fAgwcPHjx4iD+dAw8ePHjw4CH+dDY8ePDgwYOH+NPZ8ODBgwcPHuIPDx48ePDgwUP84cGDBw8ePHh+FH/l3X90Njx48ODBg1cXPCP1v3KSoCidDQ8ePHjw4AVe/ENKBsBUTzhGZ8ODBw8ePHiBFn+j3o+1AdA/HNHv/mN0Njx48ODBgxdY8W/Rq/02W6b+1z8c1u/+o6bawnQ2PHjw4MGDFyxeWD8GDYCdUxhlMgBROhsePHjw4MELHC+i67lhAEJ27wjCJgMwms6GBw8ePHjwAsczNNwwAM1Wj/5DukMwDECEzoYHDx48ePACxzOe3hsGoMVK/Jt0dzDS9L6AzoYHDx48ePCCx4uZDEDYbtGf2QC0KGcJorPhwYMHDx48v/EMAxCx1HP9S02mPYKIPzx48ODBgxdcXkxpDZ/JAIQQf3jw4MGDBy/wPLXdeyYDgPjDgwcPHjx4jcIrV/jpbHjw4MGDB68+eHQOPHjw4MGDh/jTOfDgwYMHDx7iT2fDgwcPHjx4iD+dDQ8ePHjw4CH+8ODBgwcPHjzEHx48ePDgwYPnR/FX3v1HZ8ODBw8ePHh1wTNS/ysnCYrS2fDgwYMHD17gxT+kZABM9YRjdDY8ePDgwYMXaPE36v1YGwD9wxH97j9GZ8ODBw8ePHiBFf8Wvdpvs2Xqf/3DYf3uP2qqLUxnw4MHDx48eMHihfVj0ADYOYVRJgMQpbPhwYMHDx68wPEiup4bBiBk944gbDIAo+lsePDgwYMHL3A8Q8MNA9Bs9eg/pDsEwwBE6Gx48ODBgwcvcDzj6b1hAFqsxL9JdwcjTe8L6Gx48ODBgwcveLyYyQCE7Rb9mQ1Ai3KWIDobHjx48ODB8xvPMAARSz3Xv9Rk2iOI+MODBw8ePHjB5cWU1vCZDEAI8YcHDx48ePACz1PbvWcyAIg/PHjw4MGD1yi8coWfzoYHDx48ePDqg0fnwIMHDx48eIg/nQMPHjx48OAh/nQ2PHjw4MGDh/jT2fDgwYMHDx7iDw8ePHjw4MFD/OHBgwcPHjx4fhR/5d1/dDY8ePDgwYNXFzwj9b9ykqAonQ0PHjx48OAFXvxDSgbAVE84RmfDgwcPHjx4gRZ/o96PtQHQPxzR7/5jdDY8ePAq5R3ZvXHkxEVb3pvq7PmkNuX+Camp952cnLrki9q0h76auOWRb2gLNp+qpfu/EO/MHqctzGrjMrnPa525z4xdkDs8Nf/pfffavXtvrgc8eGWJf4te7bfZMvW//uGwfvcfNdUWprPhwYNXnDd594h4uv+DiXQumUhnv6115SaLozPelV+W6Mo9I47XxLFb/L/diXkbdic61r9zyL/Lf5f/3/rYIY4X4uncZvHnI+LoSnT2/SIxe/l/JKYv/dr4G2773MSzzjiA6wEP3h68sH4MGgA7pzDKZACidDY8ePAMnrag50OJTO7ria7sjYlM/gEhxP3ieMtWwCsTf0Xe+jfj6b4N4txu1dLZyxOduVNTmdwhXF94DcqL6HpuGICQ3TuCsMkAjKaz4cFrXN6EC696f2rGkn9Jtj41WWtfe7e4w9/qnli7Lf6WvGe1TK5bnP+P5KsF+TqC6wuvznmGhhsGoNnq0X9IdwiGAYjQ2fDgNRZvUvfupviCTRO0ttUztfZ1G4Ww7qyBWFeDt028orhHPMm4KDF/w6cYL/DqjGc8vTcMQIuV+Dfp7mCk6X0BnQ0PXgPwxnX0vkuI4TeEKGYSndmXfCjWnvO0jp6tWtuqzuT0RyYlzv3hAYwXeAHnxUwGIGy36M9sAFqUswTR2fDgBZKn3Zr/gJbO/SDelbtfCOGbQRLrKvBeFgsNF4p1BF87pnVrhPECL4A8wwBELPVc/1KTaY8g4g8PXh3y5HtvLZM/TYjbQ0IAd9WJWHvNe0WYpHax2HEc4w9egHgxpTV8JgMQQvzhwas/nraw/yOFFftiC12di7XXvD6xiPBSkZPgIMYfPJ/z1HbvmQwA4g8PXp3w5N1+Ip0/vejdPuJfKe8N+VRgXFfvxxh/8ALNK1f46Wx48PzHm9i5+QAhUNeK4/8Qa895u7SOtb9PTr3/RMYfvKDz6Bx48ALKSy3qe7dYyX+dEKZXEevq80SOhKe0mY+dcdRVlzcxnuEh/vDgwfOcl5iXO1AsULte7mtHrP3Ay/eK6/Gdk2fkWhjP8BB/ePDguc4b17bmIH1h3zbE2pe858SOi7NLFTBiPMND/OHBg+eIN+Hinx+spfvkHf92xDoAvHRuuUw9zHiGh/jDgwevbF5y1hPfFgVu/oK4Bo4nd2FkxnT2vZ/xDA/xhwcPnjJP++VvPytS1S5FXAPPE69rsleMv2lJhPkBr5bir7z7j86GB682PO28qw5OzFkxRZa4RVzriNex/s/Jmcu+zfyAVwOekfpfOUlQlM6GB6+6vOSMh89KdPQ8i7jWMW/u2mWJXyw+kvkBr4riH1IyAKZ6wjE6Gx686vAm/mT6ocm5q+9GXBun8JCWyZ7J/IBXBfE36v1YGwD9wxH97j9GZ8OD5z0vOXXJF8Vd//OIa+PxZPXB47r792F+wPNI/Fv0ar/Nlqn/9Q+H9bv/qKm2MJ0ND54HvNSZ5+2vta2cJoRhJ2LY0Lw/Jbv6EswPeC7zwvoxaADsnMIokwGI0tnw4Hkk/jfc+RmRRnYNYghPP3bKWg7HtK5qZn7Ac4EX0fXcMAAhu3cEYZMBGE1nw4PnDS8x58nvi0f+2xFDeEMPUddhZbyz/6PMN3gV8AwNNwxAs9Wj/5DuEAwDEKGz4cFznzdu1qOjtbnrfosYwrPNG5DJfZ35Bq8MnvH03jAALVbi36S7g5Gm9wV0Njx4LvMmzlt3cKK9ZxViCE+15HCidcWVzDd4DnkxkwEI2y36MxuAFuUsQXQ2PHjKP6l5Gz8tk8AghvCc8rS2VZ0TzzrjAOYbPEWeYQAilnquf6nJtEcQ8YcHz2VefMHmL4iMfq8ghvDK5rWvffi4juX7Md/gKfBiSmv4TAYghPjDg+eB+Kd7fyCC+Q7EEJ4LvI2p+Zs/zHyDZ8NT271nMgCIPzx4bvIm7x4RT2enI17wXOb9tVSJYeYvPEe8coWfzoYHr/SP3Mcd78rejnjB84j3usgeOIn5Bo8SwfDg+Uz8E+m+OxAveF4nDYp35b/F/IWH+MOD5xfx7+q7E/GCVyXeDi2TP435Cw/xhwcP8YfXeLy3tXT2q8xfeIg/PHi1e+x/F+IFr0a8t+Kdm77E/IWH+MODV0Xekd0bRyL+8GrPW/+GNu2hrzJ/4SH+8OBVgZdaujSE+MPzD6/n9eTUJV9k/sKzYe5N58CDV3GSn2wr4gXPX7z12+PzN2vMX3jFhF/P+6OcJChKZ8ODN/xHS/ddgtjA8ynvlUTnlk8zf+ENEf+QkgEw1ROO0dnw4O35k1jQ+xURbHciNvB8zNsysXPzAcxfeLr4G/V+rA2A/uGIfvcfo7PhwTM99u/c9DnxmPU1xAZeAHhL5DoV5m/Di3+LXu232TL1v/7hsH73HzXVFqaz4fHYf0HPhxIdG55HbOAFhScSBU1n/jY0L6wfgwbAzimMMhmAKJ0ND56485+2bJ9Ex7oNiA28wPHS2W8TDxqSF9H13DAAIbt3BGGTARhNZ8ODt9deR111eZM2d+0fEBt4AeW9IXasHEs8aCieoeGGAWi2evQf0h2CYQAidDY8eAO8xJwVlyE28ILNy29NdG06mHjQEDzj6b1hAFqsxL9JdwcjTe8L6Gx48MT3kjfdGxcJVt5EbOAFnSe2rj55wr/++N3Eg7rnxUwGIGy36M9sAFqUswTR2fDqnHf8BVcdlGjvySI28OqFp7Wtaice1D3PMAARSz3Xv9Rk2iOI+MODp/MSbavSiA28OuPt0qY/9CXiQV3zYkpr+EwGIIT4w4NnEv+bl52N2MCrU94z49seihEP6pantnvPZAAQf3jwdF7y6kWfEu/9X0Zs4NUxbxbxoMF55Qo/nQ2vbu/8T5m0n9a+5knEBl6d83Zp6fwE4gE8OgcePJ2XnPXkJYgDvIbgZfJPp7o3RokHiD+dA6/hedplbUcUHv0jDvAahKd15W4hHiD+dA68hucl21bfijjAazDeruTC/HjiAeJP58BrWF5q6n0nIw7wGpS35YR0z2jiAeJP58BrON7Es844QDz634g4wGtYXjp3NfEA8aez4TUcL9m68r8RB3gNztuWmv/0QcSD+hd/5d1/dDa8euclrs58TATLVxEHeA3P68rOIb7UNc9I/a+cJChKZ8OrZ14i3ftrxAEevALvbe3a248hvtSt+IeUDICpnnCMzoZXrzxtwaaj5CpoxAEevAGeNnfNncSXuhR/o96PtQHQPxzR7/5jdDa8euWJ4LcYcYAHb0+eNuX+CcSXuhL/Fr3ab7Nl6n/9w2H97j9qqi1MZ8OrK56W6f8nx3f/iAO8huD1LSO+1A0vrB+DBsDOKYwyGYAonQ2vHnkiAP4WcYAHrxQvewrxJfC8iK7nhgEI2b0jCJsMwGg6G1498lLp/Kcc3f0jDvAajBfvym3Ya/LuEcSXwPIMDTcMQLPVo/+Q7hAMAxChs+HVK8/R3T/iAK9BeVo6+1XiSyB5xtN7wwC0WIl/k+4ORpreF9DZ8OqS5+juH3GA19i8pcSXQPJiJgMQtlv0ZzYALcpZguhseAHkiUebv0Ec4MFT48nFssSXwPEMAxCx1HP9S02mPYKIP7y65aUyuUNEUNuBOMCDp8bTurKtxJfA8WJKa/hMBiCE+MOrd564+78KcYAHzxFP1gjYl/gSKJ7a7j2TAUD84dU3T6xoFhXP/ow4wIPnjCeM88XElzrklSv8dDa8oPHkvmaCOTx4ZfH6Dz9nboj4QolgOhteIHlaV+4ugjk8eGXybnnkG8QXxJ/Ohhc4nuXiP8QBHjxbnigStIT4gvjT2fACxyu5+A9xgAdPlbcr9cvbjia+IP50Nrzg8Eot/kMc4MFzViWwdeV1xBfEn86GFxhesit7PMEcHjxXqgT2EV8QfzobXvm83bv3rub5iYA2i2AOD55rvKOJf8EWf+Xdf3Q2PNWfSd27m1LzNnxUm/nIJG3Wk5cl2lbP0+aufUTr6Fkv7hzyInD8VRzb9SCyo/Df6dxL4k/5/x6Jp3MLE5ncL8Rq/W/K9KPHtK5qduP8BPtZgjk8eG7x8jcQ/wLLM1L/KycJitLZ8Ir+iDt5rTP3GS2T/7EICr8XQeIfLgejNxMd657SWlfclJq+5MsnfPPC9zhtb3xh/hiCOTx4rvKeIf4FVvxDSgbAVE84RmfDM4u+uGtPaulchwgEL1Y3GK1/OdHZNzfZ1ZdQfY0gzvVqgjk8eO7y4l19RxFPAyf+Rr0fawOgfzii3/3H6Gx4YxfkDhe1wX8uJv+ffBKMtoinDj/TFvZ/xObx/zqCOTx4rvMuI54GSvxb9Gq/zZap//UPh/W7/6iptjCd3YA8+S5e3EX/Wkz4nT4ORkvGZXKfH2ZaFm75EMEcHjxPeI8TTwPDC+vHoAGwcwqjTAYgSmc3Hi+Z6f+cmOR3imNXUIKbTPVrrl0uFh7+B8EcHjxPeDvGdG/cn3jqe15E13PDAITs3hGETQZgNJ3dWLzEvNyBomjOAkvh93dwE08q8osKuxE6epYSzOHB84anZbJnEk99zTM03DAAzVaP/kO6QzAMQITObiBeIVte9nwxsf9WJ8HtbcHZQTCHB88z3lziqW95xtN7wwC0WIl/k+4ORpreF9DZDcKTC/zEZH6K4AYPHjwHRx/x1Le8mMkAhO0W/ZkNQItyliA6O/A8kXxnkpjI/yC4wYMHzylv4uTOw4mnvuQZBiBiqef6l5pMewQR/wbgnTwj1zIsRS7BDR48eE54Ny87m3jqS15MaQ2fyQCEEP/G4KUW9b1b+ZE/wRIePHgleFrbqlbisy95USfpfpsQ/8bgxdP9HxSr5HsJbvDgwauUp7WvXUl8DjCvXOGnswN455/Of0rslf8LwQ0ePHguped+7fBz5oaIz8Hn0Tn1fOcvcncrbfEjuMGDB88BT6QI/wTxGfGns33K09K9h4pJ/DzBDR48eG7zzAmBiM+IPzwf8cam8+8RkzRHcIMHD543vPwNxGfEH57f3vl3b4yKCbqa4AYPHjyveGJd0T3EZ8Qfns94IsnPQoIbPHjwPOZlic+IPzwf8cSkPI/gBg8evCrw3prUvbuJ+Bwc8Vfe/UdnB48nS+KKSfkawQ0ePHjV4MUXZg8jPgeCZ6T+V04SFKWzg8PTU/xuIrjBgwevWjwtkzuB+BwI8Q8pGQBTPeEYnR0cXiKTu5LgBg8evKryRClx4rPvxd+o92NtAPQPR/S7/xidHQyefAwnJuPrBDd48OBVkyd2AkwmPvta/Fv0ar/Nlqn/9Q+H9bv/qKm2MJ3tc57Yj/t7ghE8ePCqzYt35ecQn33LC+vHoAGwcwqjTAYgSmcHQfyzpxCM4MGDVxNeJncH8dmXvIiu54YBCNm9IwibDMBoOjsYPDEJVxGM4MGDVwuelu57kvjsO56h4YYBaLZ69B/SHYJhACJ0djB44vHbSQQjePDg1YzXvv4v2mVtRyROmbQf8dkXPOPpvWEAWqzEv0l3ByNN7wvo7IDwxCR8jGAEDx48H/B2iON/xROBteL//yGRyc8XCwSv07qyF8rXlKn5Tx9EvK8KL2YyAGG7RX9mA9CinCWIzq69+KdzSYIRPHjwgsPLbx1YsJz/mTi+rN2a/wDx3nWeYQAilnquf6nJtEcQ8Q8QT7jqWwlG8ODBCzjvBW3umsXJWx79jnbZlA8T7yvmxZTW8JkMQAjxDxbv2EwuVjTlL8EIHjx4QX6N0L7uSS3de2kqnf8U8b4sXtRJut8mxD94vHgmdy7BAx48eHXNy+SfFn9OSS3q+zj64TKvXOGns2vPE5NiKcEDHjx4DcR7OJHOn35k98aR6AclghuWN3HRlveKybCL4AEPHrwG5L0gngxcb1QhRD8Q/4biaZnsmQQPePDgNThvVyLde09q6gMp9APxbxiels51EDzgwYMHb4AndhH8fvz1d41BPxD/uucVFsYQPODBgwfPzNuZSPctHLsgdzj6gfjXJa9Q9pfJDg8ePHileG+L7IOtYzr73o9+IP51xRP7Y09nssODBw+eLe8V8br0B3vt3r03+lHG7j/E2n88rW3ltUx2ePDgwVPmPVYsj0AD6oeR+l85SVAUsfYXL9G2upvJDg8ePHiOeG9o6ezlx7Suam5g8Q8pGQBTPeEYYu0vnta+dg2THR48ePDK4WV7kgs2H9uA4m/U+7E2APqHI/rdfwyx9hcv0dHzCpMdnvk9pzi2iMC2QpRevSfR1delta6+RWtb8avknBXXabOXX51sXfnfYnX0f4jPfU8vzfqf8Uz+v2VFNlmuVaSVnikqS/5a/PuD4jPrxL/9Rd4xcT3g1Slvhzb7ySsbSPxb9Gq/zZap//UPh/W7/6iptjBi7QPexHMveS+TveF4MuNjPpHJ3SFzosfT2f+Ip3Nf1DL9/zSuo/ddXo6/cW1rDtKm3D9BVGk7J9n61GTx+mmeKNTyiKzexvWFF3SeyB1wx4SLf35wnetHWD8GDYCdUxhlMgBRxNo/vNSl7Ycx2euZt/5NLd33pPh/M8RnzhNif+wJ6Z7RfhzPMh11sit7fLwrd7F4crBAnG8f1xde8Hh9G+Od/R+tU/2I6HpuGICQ3TuCsMkAjEas/cWLz+85gsleT7yef4i7kPu1Oct/lrx5yUnjZj06OsjjOTEvd6B4rfBl8YTiJtHOp+R+bMYLvADwXhavvb5UZ/phaLhhAJqtHv2HdIdgGIAIYu0/Xryr7ygme9Bzl/etEu/kb9SmPHDSxLPOOKCex/OxmVxMW7Dpa1rbmvmJ9p6/MF7g+Zi3S66JscoZECD9MJ7eGwagxUr8m3R3MNL0vgCxrhZPDLhU98bouFt73ydW+B+emjz/IxN+NPWDibPPP3AoT6QAHsdkDxzvTXF3cVe8K/8t+U69oRew/vKOzydaV1wpTNBqxgs8n/Lm7TV594iAz7eYyQCE7Rb9mQ1Ai3KWIMTfljc2nX9PsqsvId/nCnd5g/jzTiEGK8V/94r/fk5fwb3LYrC+LVZnbxXfWSs+8wf9YLL7n/d24Vqls99OzX96X+bHcJ62sP8jAzsRcusZL/D8xBPrWn5j5AsI6HwzDEDEUs/1LzWZ9ggi/hUs0NM6N58m7tJn6+8//85kajjeRrFa/yKRdezdzA913rgFuSPlDgdxvMj4g+cPXv73wryHAzrfYkpr+EwGIIT4O+T9540fSN788BmJ1lWzxWKuP4rBtYvJ1JC87cL0zde68mOZH5XxTp6Ra4l3Zc8QiwgfsnkyxviDVw3ekvFtD8UCON+iTtL9NiH+aj9yMCRnP3m+WLn9sBhYO5hMDc17VibUOa67fx/mh/s8uTVLbINsFVsjX2f8wasVT+voWSHXZNXlfCtX+BsqGIkFIVomd4JYuJQRwWg7k6nheevEHeq/Dn1HiPh7w0v9dPbh2uwV14unbC8x/uDVgicWZ69MnX/ZQZQIbqBgJN7/HCQC/S8Li/WYTPAyuSekEfTTeD566m3hVFf+CLFQNCmeRnxNpPn9rr6wbooog9oh/syI47dy8alclCgWN90vPvc/wszekWhfe7vWtvo3WuuqBcnWFVO11uWXxzs3nyuzDI7L5D4vd6XYbYmqZnsT3/35ewfSGee3Mp7hVZunta+56/Bz5oYQ/zoX/7ELt3xIrLq/RQyE1xn88MSxalwmf3Itx3Pymu5PJm5eeprYQneNFG2RjvdJUdlM5uvf6XH/yXoAWWkcxDbGOWKtwwXSbBg7G2oxf8d0PztKy+R/LM7rBcYzvGryxByYhvjXqfjLbUlyD6g43mLwwxOit0Fmtav2eC5k0+vMnVrYNpruWyZeO73sy/5L5/4szu+uZNuKq1JT7ztZ1qmo5vyVuTPEOVxquduG8QzP/SeBFyH+dST+qfmbPyyC7SJxcXcw+OGJf/8/+Si9VDIQt8ffmO6N+yfS+dN185kNcP+9Jd7TrxT/fkNyYX683RoJt/pvYufmA/QndsxfeNXg7RRP376K+Adc/I/s3jhSf1/6GoMfnvj7W+KOdqr58bZX40+mdBZB5HJxLo8PE676uR4yydXvxGuD78j1NJ6v2UnnP6WXM2Y8w/Oa95os1IX4B5QX78wep2fjY/DDk1t9lo6bt+4TXo4/KVDCcF7ToFXz5FqFpeIz58tXHF7Gg8SC3q8k2tf/hfkBz1OeeAUWX/jMfkEUf+Xdf/Um/mM6+94v0zwy+OEVjvaev2mznvieV+OvsJOkK/fTQoZAroc5TfJ98rXHSVfdM8qTrYM/vOaQRNuqNnF+O5kf8LziCUN/W8D00kj9r5wkKFov4i9WDp8mLto/GPzwCnf9batv066Yd5jb409uFdLS/V8Q6whuHyyHy/UowVv/UiGTpigS5EU8SE5bcrx4rbOJ+QHPK57YGfDvARL/kJIBMNUTjgVd/GU+58IWJgYrvAKr5yVt+iNnuj3+Jp536YHagt4finfeT3M9yuC1r3tU69x0ktvxoLDWZyCfxy6uBzwPeNu1jvVHBkD8jXo/1gZA/3BEv/uPBVn8ZTpRmbmNwQpPz+j11Pir0590c/wd//3L3pecs/K/xe95nuvhAi+dWy5W9X/J7SREgnuiUu4Argc8p7yOng0nfPPC9/hY/Fv0ar/Nlqn/9Q+H9bv/qKm2cPDEXxQV0VciM1jh7ZLZ7iaedcYBbo0/mR9cm/PUtYXH2FwPD3jZHvnazmo7puOqgyK7oWA/zPWA5zpPvMry6c1yWD8GDYCdUxhlMgDRwIm/uHMQF+dXDFZ4A7yeFxMzHv66q7np21b8SnBf4XpUg5fvFUbg7NTSpSE34suk7t1NgvmzYVkUuR7wKt1NNG3pCT7Ty4iu54YBCNm9IwibDMDooIm/TD6i5z9nsMKT75WfSFw5/xNujL/jL7jqoMScFVOE8L/G9agBT66tEDsHXMu4mOmfKHZo/C/XA557vL41ThOIeaiXhoYbBqDZ6tF/SHcIhgGIBE38T0j3jJYFTxis8MT3d2mtK2468evf2t+VXPwzH/2m2DL4F66HH3i9SxLX/+4YN+KL3KYpgvZDXA947q1hyZ7vA700nt4bBqDFSvybdHcw0vS+IFDiL9OBis5/isEKT76TT8546CtujL/4/J4jxMLB+7gevnut86Y0eG6UaI2fctq+ohLiL+Q6Ea4HPBd4L8r03jXWy5jJAITtFv2ZDUCLcpYgn4h/KpM7RGzz2cxghScYf9Z++dvPVjr+Tp6Ra4l39k4WZuJ1roevec/E528+1Y34krxl2XkD6aC5HvAq48naFDXWS8MARCz1XP9Sk2mPYLDEf1Hfu0um9GWwNtpWnI2m9/1lj7/CdrF0X47rERyeCLh3yaJelcaXxPxNJwveNq4HvAp5O2S9jxrqZUxpDZ/JAIQCJ/6yHGhXdgWDFZ5Y7Pdk6iczPlTJ+Duuu38fIf6/5noElveaSqlWu/gii7zIx7hcD3gV8h6poV5GnaT7bQqa+MvV/mIF7/0MVnja3LV/0N8Flz3+kpn+zwneFq5HHfAyuTuKFWlx+GTx44L1DNcDXkW1ArpyKV/XCihX+Gu/zz+/iMEKTyzQy+jJfcoefyJn/4WC9ybXo654fxpartVpvJJriyyLOHE94NkffwhKoaDAZPgTSUGmM7jgiWI+0yqqHz//6X31gj1cj/rkvSVixY8riVdyNbd4ovAE1wNeuTy5FgDxdy+97zkMrobnibS+K/+7oiQwC/v+ebBoD9ejrnlauu9u7YqbP1TueDmmdWtEPHH8PdcDXjm8eGffIsTfBd64BbkjZeUlBldj82ThnYrEP537kbw7DFD/7dA6eraKRETZwtGxPiv+vXdg94vDQ35Pft9glc3TF8kFJ2/As4kp9x5XbrySFQWFYXyA+QuvDN7b4ydn/gnxr4A34MIt3scxWBvksf/K6eXfyQ1JE+3r9mZFadzNF42/7nf/z5TN0FfBY/xNSyKpKQ8ep6dH/nMAxt9biVlPfrfs9rY9FBPtXMv8hee4CmnrylbEvwKe6NB5DK5GX+2/ZlHq1FP2LWf8DUsT7d/2rk92ZY/3+zvDobzE2ecfmJzz1E8TndmXfD7+dmld+UsqKQQltpzmmb/wnPF6Xpt46awPI/7liH8mdxaDq9FX+6+7t9zV/sPSRPu1vZn8fJmBMGjib+Zp6d5DxdanDf4ff9kb5W6ictorH+cmOjY8z/yF54jX2XeBX8RfefdfrYORDCiiU19lcDVyhr91y7Xzrjq4nPGn3Zr/wB5pov0r/tcHYauQCm9cR++7RGa+lf4ff9kFQ0sMK2cM7Nj8/wTjZeYvPFWemBNP+mD+Gqn/lZMERWsZjPZYfcvgakBez6ZyM/xp6ewnBOfZALT3Tnk3Wg/iP7h9rrPv/WLubvX/+Mv/Xq4vKqe92sKsJhivM3/hqfLGLsgdXmPxDykZAFM94VitglE8k/8Kg6uhC/s8W25u/3GZ3OfFav+XAtDel+UrinoS/8DNX7HPf2jmQNX26m3cwfyFp8TL5K6sofgb9X6sDYD+4Yh+9x+rRfDQF209w+BqWPH/2/gbbvtcOYM/3pk9bo/ton5ubzr7k3oUf9Pi3ccDMv42isRQB5XT3nhX/t+Zv/AUeX01Ev8Wvdpvs2Xqf/3DYf3uP2qqLVzV4CHfiTK4Gpa3Kzn9kUllif9AIZdtAWnvm2NmP7Gv3fwQq9bHSqMghGaa7ZHOTk+0rZmVaF01e/AQf5f/rvR9BZ7IwDhTbFE8f+zCLR+yz7mQPz0o40+8o12rcj1K5JZoY/7CU+GNS/d/tsrmPawfgwbAzimMMhmAaLXFX0/48xaDqzF5Yq//tHIGv17A5cXAZAhL9z1gNT/kAjXxyDDt4+u7XUvn/s3qmhybycUKdRaCU1Vy2QnfvPA9TsefeHoQFosKe5i/8Ox40lhXUfwjup4bBiBk944gbDIAo2v02PA+BleDin/72qdM2/3UxX+gcMszwcpouOIaq/kh3xcG4Pq+bXVHo98dLw9U0pa5a+5MnDJpP6fBN97Z/9HBHUvEA3gWhaqqJP6GhhsGoNnq0X9IdwiGAYjURPxljnYGV4Pyel4af3X6k44f+4sFXEIs/xg4szPzse9bzQ/lmvS1b+9cawPQd0fQxrPWvqajnPinZbJnEg/g2den6D3UY/E3nt4bBqDFSvybdHcw0vS+oCYLkMR7uLsYXA3JM7/3Vx4vY7qfHbXHQrMg9d/0pV8r1d6BbXTBuL5yz79VPEjMXTMviONZJDS6qpz4p7WtmU88gGf9GiB7jscLdmMmAxC2W/RnNgAtylmCXBb/ROeWT4vO2cXgasRc2aumO37sL9+RB7hKmzb1wVNLtTfVlT8iMNdXPH2xigeJtlVtgR3P6ez5TuPfxHMvea94lfVH4gE8C9Pc6fFuHcMARCz1XP9Sk2mPYE3EX39X+GsGVwOK/zvv/Z2NF3N9CO9eS7yabF/9O2328quTs588PzF/08nizjDl+FiwaUJi+kNf0KY9eIpxpP5r9gdLtVc+2XDKk3+X/+7W+anykpn+z1nFg9QvbzvarfNL3vzwGclZj1+kzVl5faJ97RPiOu30eDzvlHv9ncY/7Ze//Wxi3vptxAN4JXh/8nirbkxpDZ/JAIRqKf76ApqdDK5G4/W8lLomc2QZ4v89b/MQ9KzUZiz9hixyU0/78uuNl5iXO1BsGb5AmIT/9XA8v6It7P+I0/PT0pu+STyAV4qXumbRpz2cH1En6X6bain+ekCfy+BqQN7MZd90Ol7GLszKPOxveHR+zyVmPvYtxDVYvFT3xqi4U7/GNitfmeNF5giQW/0cpwsWj3qJB/CK8m4ZXARcu/lWrvC7Odn1rH+vMrgaiye3WzkdL7LQjGDlvDm/3hXaz9MfRVyDy5OllMW1/Jsn4zmTn+30/MZ0b9xffPevxAN4w+Jf26pFfppvNfvlhXK/DK5Gq4/98oQruo5w/qQoe6sn59eVfXDieZceiLgGn6e/TnzBi/GsZfKnOT0/+R3iAbxhW007etY3vPgPpG/te4DB1WCDf85TFzgdL1pX9rsenV/vhEtmfgBxrR9esqsvMZhN1N3x8kpq3oaPOj2/YdubiQfw0tlXEf/5qw4RnbGTwdBAvPZ1jx511eVNjsZJV99RhdKr7p/fm4nrf3cM4lp/PPFk8SKPFoj2OE0XrGeqfIV4AM/MG3dr7/saVvwLSTNal1/OYGgo3o7UvI2fdjJO9Pf+fZ6cnyh0ozqe5VoVuRpc1hwoenT2fHL8TXd8VlYxHDzE3+W/l/yO1QFvGE9mUJvUvVvJPI6fOWOkEOu8J1tX21a1O85z0pX9T+IBPDNPbnFtWPEvJAlpX7eJwdA4PC3dN8v5nVx+vjfnt37bhMtmHmY3ngeKU2UftFxhzvWtJu+VeCY3UxpD2/hy87KzPXuNdfOjpzuJf0d2bxzp3QJWeEHkyVLSDSv+2rW3H8NgaCje3yd2bj7Akfinc0nPzq9tdbfdeBa//0eDWw65vn7j/SnZmRtjFa9kginxFODvnpxfZ/bP8qmQs0Ws+S9zfeG9UxE0d1MtxF9595+X7/i0WU9czGBoIJ54J+tkrBzTuqpZFJLZ6FkGwpnLvmU1nuOZ7L9wfX3Pe95sKovFK7Hd9DfenV/+BqfxTzz1fITrC08/7qyy/hqp/5WTBEW9WuAjJuYdDIaG4WWloDta+NfZ+1+e7sO96LpDSo3n47r79xHBfSvXNwi8/CKrYCnG0dkent9b8hWRk/iXvP5/xgnWTq4vPHFsqrL4h5QMgKmecMwL8U+desq+ooNeZDA0Bk+WSXX0qLR9/YfFO/rtXuYhsBrPWjr3b1zfwPB2pWavf1+pYCkXWnl8fo84v/lZtZjrC08mraqi+Bv1fqwNgP7hiH73H/Nia4/2q/8Zy2BoDJ4IwBv2mrx7hJPxIgoE3e3p+XX09Nrs276F6xsg3s3LvloqWI7r6v2Y1+cnFnN9y1H8++VdRwveDq5vw/N2Do2NHol/i17tt9ky9b/+4bB+9x811RZ2dV9vYkHvxQyGxuBp6exXHYn/zEcmeX9+fY9ZL9bKdXF9g8MzrecYFizF9sF3V+H8/ipqBezr5E6usLuF69vwPLs1LC7ob1g/Bg2AnVMYZTIAUS+SelhmxmJw1RNvtZPxkvrBVe9JdKz7UxXO7zHrxEPZc8Rd3Zw9jnS2NTF3zTyxe+CdQ/xd/vuwz6oc8FzjJW/4faJkoSBVA1D5/Jjl5E4uNX/zhwezFRJfGpYnU1d7KP4RXc8NAxCye0cQNhmA0V5l9JKrdxkMDcDrzJ3qaIHUnBXXVen8HiODXmPwlAyAO/NDljM/2sn5DVZBJb40LE9WN/VofhgabhiAZqtH/yHdIRgGIOLV5Dw2k4sxGBqBl+/da/fuvVXHy4QfTf2geDf/SpXO7zHEtTF4tgbA3flxp6NCQensJ+QiRuJL4/KSCzYf68H8MJ7eGwagxUr8m3R3MNL0vsCzyZnM9H+OwdAASS4UslztkReidfkvqnh+jyGujcGzNADuz49dyRvvHePk/ESWyf8hvjQuT5u+5AQP5kfMZADCdov+zAagRTlLUJmTU7z//yaDoe55clFUWHW8TLjwqvcn2nv+VsXzW424NgZPuzX/gaouSGxbfZuT80suzI8nvjQuLzVjyb94MD8MAxCx1HP9S02mPYJ7ez05xaPhnzEY6p2XvcLRvujZT15R5fa+IXOzI671zxM3HF+q8vzYKdOcOysUlFtNfGlMnjbtwVM8mB8xpTV8JgMQqob4D6ywzv2GwVDXvDcT83IHqo6Xiede8l7B/N+qtzeTuxJxrW9eaunSkDAAK6s9P0Qei4yT9mqZ/NnEl8bkJafcf4IH8yPqJN1vU7XEX3e76xgM9cuTBs/JeEnOXv7jGrV3h1iE9fNjWrdGENc6FH+5zS6Tu7dG8+PtsQu3fEi1nXIMCt7LxJfG46WmPpCq2XwrV/gr+eWiwtpLDIb65cU7s8epjpfUmeftL3jP1Li9O+SOBZEcaJ3YhbAhdePdY0smlenKHyE+/7DSke57RBR+eVTcDT5mHPLvhX9XZcB7hydqh9ikb/6BfnMhj2d9MD8clb6WpbKJL43Hi89f/xk/mO2q/fKiyS8YDPXC6y+29a9koZZ077/5rr1T7j2u1HiWe3YZL7XhaR3rn7NM3yye5visvaKM9KaDVeNpfOo94xgvjccbuyB3eMOI/8kzci0MhrrmXeZkvBTuvP3W3gEDUHQ8KxkAxosnPCHwf7G+gy5hAGrZ3kz+ekdbYdvXrmG8NBZPVh5tCPEvuieXwVBPvF1jOvverzpeqlClrTzetAcmlhrPtgaA8eIZTyzmc24Aat/ev1qVwR46PxKzn/gx46WheG81jPgPTNLeQxkM9ckTiX+WORkv8XRuoR/bO27BxrGlxq+lAWC8eFtS2qkB8Et7M7mvq8ZT7Yp5h1ElsKF4zzeM+A9sAew7isFQnzy5CEt1vIzp3rj/wDtS/7V3XCb3eccGgPHifVVJJwbAR+0VT7rud/ZaLPsg46VheGsaRvwH7vr64wyGuuTtmLhoy3tVx4u4K7rIr+11bAAYL1XhKRsA/7V3l3zyqRpPxbqB7zBeGoSXzv26FuKvvPvP7V8en7fxBAZDXfKWOBkvwzKf+ai9jgwA46VqPCUD4NP2inO7XHV+yPrwymWCGS/B5qVzV1c5r4aR+l85SVDUzaQeyWlLjmcw1CXve6qDVW578XN7lQ0A46WqPFsDsGDztX5tr3gNsMFZuvTcfYyX+udpmeyZVRb/kJIBMNUTjrmZ0UsmWWEw1B8v1br6MOXgls5d6uf2KhkAz86v583E3HV94s//86i9MkFOVq9d73b/bRfHJnH83ZNgaWEACjcXrStv9PN8S9549+dUg7ntKzLiVV3wxqX7P1tF8Tfq/VgbAP3DEf3uP+ZmOs/xkzP/xGCoO16vk8EqAvlaP7fX1gB4V0XuNxN/Mv3QQobEL//LPvHO3rML6WHdaG/H+meTCzaeaN6NI3ZhPORW/wnWTUZK5YH8+/lLCjUhXLy+pQyAEV+Sc5bf6Of5ps1ecb1qMB/X1fsx4kv988Z19L6rSuLfolf7bbZM/a9/OKzf/UdNtYVdyVUsAxyDoc54bWtmqQ5WPZWur9traQA6NxztiTi0r3mwWP+Jd8dfrby969/UFmw6aniu/KfD4jt9FfdfJj+7uNErmADXrm8xA2COL4MGwK/zTTzZcZgxdQvxpZ55+a1VqqUR1o9BA2DnFEaZDEDUzUIFiXN/eACDob542rSHvqpcCMrq0aZfHsuVMABepmtN3XTf8RYLJtdV1t7eX5felps9p9L+G5vOv6cYe1L37ibx///m1vUdagCGxpeCAfB7OuPrFn9aNZ6K9t5CfKlr3tIqiH9E13PDAITs3hGETQZgtBdVihzt/2Zw+ZzX87os56s6WOWeaN8/litiAIzxnLjp7rgX56dd1nZEqf7TurK3V9jeay2uR6rC/ttmcxe7zrU8EyYDULSqpFwD4Pd0xgt6f6i+ZTr3ReJL/fLimdxMj8Xf0HDDADRbPfoP6Q7BMAARr0oUisa/wGCoE177uidUB+sJ6Z7RRc2fz9o71ACYx/OgAXD5/CZc0XpoyQVhXbnFFWXQE9vjHBkAZ/1nbwDc2kqnG4BS8aWwC8Dv8y2du1vZACx8Zj+ZQ4B4VZ88YfAmeSj+xtN7wwC0WIl/k+4ORpreF3hWn1hM5JUMhvrgaW0rfqU6WPe4o/Fxe80GYFiudmkAPDi/VPuK91iI6OKKMug5MQDO+8/aAMgSyy5dX2kArOKLZTVA/8y37bIgmmo8Ff23kXhVl7xdsi6OR+JvrNszDEDYbtGf2QC0KGcJKnMBg2h8hsFQJyVaZz4ySXWwiu/PCEJ7DQNQbDwX1gB4cH4yGDg2AKoZ9FQNQHn9t80qHohXRBvcur6yGqBVfHFsAGqV0TCdn6AaT7W2NfOJV/XIy/Z4KP77mAxAxFLP9S81mfYIeir+AwEtewWDoS54u1IzV+2vfDcj8l4Hob3SAJQaz4VdAB6cn2MD4CSDnooBKL//tlnFA6193Qa3rq/Wsf45yyeLTgxATUsE565UjafJWY9/j3hVh7zOvmkeir/BGq2a8KdJXwPgufgXJmomfxqDIfi8eLpvg+oYSXVvjMp6AUFor6wGWGo825YDLvP8HBkApxn07AxAZf23zbq+vW4A3Nht0tGz1Sq+KBuA2o+/+5Tzplz7288Qr+qQd/Ojp3ko/vso794zGYCqiD8lVeuIl8nPV777z/RPDEx7pz0wsdR4dmwAFM9P2QCUk0HPygAs2DShwv7bZhUPCgbApetrMgDFd0uoGAB/jL9X5BZJ5a3T89a/TLyqK94O7aLrDvFQ/NV55Qp/Jb9cZgwrrG5lMASaJ+4eL1Y3ALkrA9PeKfceV2o8OzIADs5PyQCUm0GvhAEovKOf/tAXKuy/bZbiJdcAuLXgdMAAlH6yaGcAfDT+5DhSjafxdPZR4lUd5U2Zu3aVL8S/liWCRYc8w2AINi/emT1OfTVz9n8C0953DMDwQkaqBsDh+dkagEoy6BUxAIPv6Kc9eEqF/bfNKh4UdgG4teB0YA3ACNtywAGYbyK3w3cd5E25mXhVP7zknBXXNbT4D6wDyHUzGILNm7hoy3tVx4tgPBeY9g4YgKLjWckAlHF+lgYg3XdbRWIzxADs8Y7eMADl9982G/Fa59b1lbsAbMsB12ESGPGq7TvEq/rhyXUdDS3++h3h+QyGQPP+qjpeUv81+4OBau/AGoARjtevVHB+pQxAYStY+9o7KsqgZzIAw97RSwNQWf9ts0n6tc6t62tbDriYAfBrEpiu/DLVeCpeARxLvKqTvCkda5c3vPgXBnVn/0cZXMHlyUpyquNFm/rAKUFqr9wFUO0FrMUMwGD/zV1zZ0UZ9HQDUPQdvVwDUFH/rd9uFQ8cGQC7jIZODYC/59vfVeOpnkGTeFUPeVNmP3lRw4v/4J1NkB4LwxtyB5NrVx0viVlP/DRI7bUtB+zB+Q01AHs8pjcMQLkZ9IQwllxgJncBVFYLYrtN0q91bl1fRwYgAPMt9Ytff0I1nsonbsSroPPWv5loW3sA4m/c2Yj65wyuYPJEsL1cdbxobavag9RexwbAhfMzG4Bh/ScNQCUZ9ESO/FLzt2QxIOX+GzQAJZJ+KRgA1Qx6qgYgIPMtNX3Jl5WraKZzy4lXAc+bIop6+UX8lXf/eZmuMHHLY99ncAWTJ4LxN1XHi9gL/kCQ2uvIALh0foYBKN5/Yg1ABe2VVfJKzV/HBmBYewsGwOrOdZ1b11fJAARpvs168kLVeCoMwK+JVwHndeZO9cHNt5H6XzlJUNSrjEXJqxd9isEVUF4mP051sApeb5Daq2wAXDw/q8IghV0AFbQ3OWf5jSUXmDkxAMUfa263vHO1MgBOMxraGQBZDTBI823Oiimq8VS0/TriVaB5/3dM66pmH4h/SMkAmOoJx7xMWqCl+55kcAWPN6az7/0q1/eoqy5vEp9/PUjtVTIALp+frAZosZVucWX7jgcNwLD5q2wASrfXvhywW6+dLAyAbJd80hGoBWFz1yxWjacybwDxKrg8MXYn+0D8jXo/1gZA/3BEv/uPeZm0QOyH/T6DK3C8neZUptb7wDcdHLT22hoAD85vwhWth1pspVtcSXt1A1B0/ioZAOv2OjcA5b92+otl4RzRzmDNt76nlPOmdOW+RLwKLO/VMd0b96+x+Lfo1X6bLVP/6x8O63f/UVNtYU+2LsiOER30JoMrQLx07iXV6zsu3f/ZoLXX0gDIaoAenN+Ey2YeZrGVbnEl7dXXAIwoWQyosv5zZgAqyWhYxACYx9+gAQjIfLN7pbFnKu38OOJVUHn5G2q84D6sH4MGwM4pjDIZgKjX+xbF463bGVyB4vWpXl9hFk4MWntLGYDCE6up94zz4vxMBqDYVrrFlbRXvhsvmY/DygCo9Z+6Aag4fe6egjlsTZE0AMGab6+rxtJxXb0fI14Fkve6k4ypHoh/RNdzwwCE7N4RhE0GYHQ1khbEM/mvMLgCxXtc2dxlsmcGrb3FDIDR3sRNd8e9OD/dAJTaSre4ojtNu3LAlfWfmgFw4fqaDUCx8VdYAxCw+SaT/KjEU7lGhHgVSN7NNRR/Q8MNA9Bs9eg/pDsEwwBEqpWx6MjujSNFR73I4AoKr+8u1esrHl1eELT2DjUAe2xdNQyAy+enrwEYUbIYUCULkJwaAGf9Z28AXLq+hgEouaBY7gII2Hwbu3DLh1Ti6YnfOGc/wdlFvAoU7y3t1vwHaiT+xtN7wwC0WIl/k+4ORpreF1Q1XaHorF8xuILBE6uXu1Svr1z9GrT2mg3A0PFcMAAenJ+8w7OYG4sryqDnxAA47z9rAyCrAbp0faUBsIovtuWA/Tn+jlbOm9LR8zLxKjg8LZ3rqGGenZjJAITtFv2ZDUCLcpYgFxsjt5UNWwzI4PJnPWuR2U85g1lXbkrQ2msYgGLjubAGwIPzsy0HXEkGPVUDUF7/bbOKB0K0Nrh1fWU1QKv44tgA+GD8JRfmx6vGU8F7nngVGN62eLr/g7VKsmcyABFLPde/1GTaI1h18TctBmxlcPmfp81ZOUv1+oq7tluC1l5pAEqN58IuAA/Oz7EBcHQnomAAyu+/bZbpvtvXbXDtyZOoHWIVXxwZAJ+MP1EV8CTVeCp4zxCvAlMr5ac1FH+DNVo14U+TvgagZuI/MIF7DxWd9zaDy+clLdtWTlO9vrJoUNDaK6sBlhrPtuWAyzw/RwbAaQY9OwNQWf9ts4oHgwbAjSdPHT1bLRecqhoAH40/ub+/XjNqNjBvk1XWvyqI/z7Ku/dMBqCm4v9OsOvrYnD5nNe26gbV6ysYXYFr77QHJpYaz44NgOL5KRuA8go3lTYAshpgZf23zbIQlDQAbj15escAFI0vSgbAb+Mvk/u6ajxNdGV7iFf19VrHyyR77lYFqlJjUtff9VlWu/qbJ1ZbX6H8VCeT6w5ce6fce1yp8ezIADg4PyUDUG4GvRIGoCAq0x/6QoX9t83ysbVcA+DWk6cBA1B6wamdAfDh+JPbZFXjqTAAK4hXfuflFwVG/Cv58bIxokzwbQwuH/PSuUsdrOu4PXDtfccADBvPygbA4fnZGoBKHjMXMQCD7+inPXhKhf23zfqxdd86t66vvgZgROlXiBYGwKfjL57O/atyUq1M7gnila95/5CpzxH/CnmpazJHyipjDC6f8jK5K5Vf6cgypkFr74ABKDqelQxAGednaQBkNcBKMugNMQB7mG3DAJTff9usH1vn1rn25EnsArBeQ1TCAPh5/KXzp6tnTM2tJF75uUR69kLE3yVeYsHmnzK4/Mmzeqc8PCj3pQPX3oE1ACNKFgPy4PxKGYDC/vb2tXdU9JjZdL2GvaOXBqCy/ttm/djaoQGoIHd+UQPg8/mmLdj0NeWkWiprAIhXteLdt9fk3SMQf5d4chWluNP8I4PLjzy14hYF8WpbMz9o7ZW7AEoWA7IyABWcXzEDMPiYfu6aOyvKoKcbgKLv6OUagIr6b/12y8fWTgyAfUlVZwYgCEm1Zj4ySTWeitcFm4lXvuQ9l5iXOxDxd5mnLcxqDC4f8tK5qarXVyQNag1ae23LAXtwfkMNwB6P6Q0DUG4GPSGMpeZbYRdARf3Xs90qHigbAJUnT04MQEDmW2r6ki87SKqVJ175jrdDxMMk4u8RT0z6Tgar35Jc5OcoL+hsXTU9aO11bABcOD+zARj2mF4agIoeM2++ttR8sy0HbNt/gwagVCGjdW5dX2UDEKD5lpp638kO0qU/R7zyWR6HdPbyIIq/8u6/WjdGPloRHf1XBquPeGJhn+r1TbY+NTlo7XVkAFw6P8MAFJsfhTUAFbRXVskrNd8cG4Bh7S0YgJhFIaN1ruVWVzEAAZtvyevvOFY1norvv0a88hVv2Ht/v4u/KfW/cpKgaK0bI/aSnyA6exeD1Se8TO5e1eurzXnqgqC1V9kAuHh+0gBYbKW7rZL2Jucsv7HUfHNkAIq2t7AGwOqx9Tq3rq+tAZDVAAM23yZO7jxcJZ6ePCPXQrzyFW/Ye/+AiH9IyQCY6gnH/NAYITq/YLD6hJfOLVe9vnKVc9Daq2QAXD4/WQ3QYivd4kraazIAw+absgEo3V77csAuXV8rAyDbJZ90BGy+7Ro/c8ZIlfiXmv/0QcQr3/BEoZ/ssQEUf6Pej7UB0D8c0e/+Y35ozKTu3U1iG8yjDFZf8PqU05eKBTJBa6+tAfDg/CZc0XqoxVa6xRU9Zh4wAEXnm5IBsG6vcwNQ9j7r4gbAGH+ynQGbb39XzqeRyX2SeOUL3ltDCzgFRPxb9Gq/zZap//UPh/W7/6iptnDNG5PK5A4RF+lFBmvNeX9XTl9qDlwBaa+lAZDVAD04vwmXzTzMYivd4kraq68BKL61zM4A2PefMwNQWeGcv1jFl0EDEJz5lnWQUCtJvKo5b5eIZ2cFTPxH6HoeNhsAO6cwymQAon5qTPLmR79OrYDa805I94xWub7yc0FrbykDUFg1P/WecV6cn8kAFNtKt7iS9sp346XmlKUBUOs/dQNQ4fUdagCGLTiVBiBA8030/f0OngCcRbyqLU9cr4sDKP4RXc8NAxCye0cQNhmA0T5rzIDTn738cgZrbXmpzp5Pqmcwy70QpPYWMwDG+EvcdHfci/PTDUCp/ltcSXttywFX1n9qBsCNwjkmA1AsvhTWAARpvqVzbeoZNXsvJV7Vsmpj/voAir+h4YYBaLZ69B/SHYJhACJ+FP/B1eVtK6czWGvHS9289FTlrZx2Vcx81t6hBsA8/gYNgMvnp68BKLWVbnFFGfScGgBn/WdvAFy6voYBKL3gVOwCCNJ8UyyqVVhLM3d1G/GqZuI/P4Dibzy9NwxAi5X4N+nuYKTpfYFvxV/+/airLm9SShLE4PeGN+vxH6heXyEyvwlSe80GYOj4KxgAD85P7gKwENHFXtVuGGYAnPeftQGQ1QBdur7SAFjFF9tywL7LqJk/XTmj5tw1vyde1YAnntLIBegBE39j3Z5hAMJ2i/7MBqBFOUtQjZMGpZYuDYm89L9nsFafp7WuuEk5g9nQLZw+b69hAIqNv8IaAA/Oz7YccCUZ9FQNQHn9t83yzrWjZ4NrhXNENUCreODYANR6/C3s+2fljJrt6zYSr6rLs6qi6XPx38dkACKWeq5/qcm0RzAQ4m/8HNO6NSIu1uMM/irz2tfepXp9tUz2zCC1VxqAUuOvsAvAg/NzbACcZNBTMQDl9982yzvX9nUbXCuc07H+OcvaIU4MQO3H3y65QFYl/iVOmbSfMFKvE6+qudo/f0GAxd9gjVZN+NOkrwEIlPgPfr67fx9x0R5h8FeT17NJ9fqm0vlPBam9shpgqfFnWw64zPNzZACcZtCzMwAVJkWxuXPd4Nb11Tp6tlrFA2UD4I/xl1eNf6lrFn2aeFXNff7ZMwIu/vso794zGYBAir8pU1ZYXLzfMfirxnvD/G7M8toUXtXk3ghMe6c9MLHU+HNsABTPT9kAlJNBz8oAyGqAlfXfNqv5WzAAbr12escAFC8cpmIA/DP+fqca/+Izl32NeFUV3qsy7XwdiL86r1zh92NjBrIF5uYy+KvDS3Xlj1DextSVWxuY9k6597hS48+RAXBwfkoGoNwMeiUMQOEd/fSHvlBh/22zmr+FNQAuXV/dAJSMB7YGwF/ptK9WjX+JBb0XE6885/WL4+iGEv9KfvzcmCBWBQsib+ijMpvV4PMD0953DMCw8adsAByen60BqKxk6c9LvqOf9uApFfbfNkvxkrsAXLq++hqAEZbzPihJZTL5r6jGP7HQeRHxylPeb+VrZMS/ThpT2BLUuuI/xSDYweD3ch9zdoby9ZBVAYPS3gEDUHT8KRmAMs7P0gDIaoAerWYeNADl9982a/HKrXPr+spdALbGPyDzbeKiLe9VjX9iQdrTxCtPeG9o6dwPgqhviL/K1pkpD5wkHkE+x+D3hice669UvR6y7nlg2juwBqDo+LM1AGWeXykDUDBP7WvvqCiDnskADHtHLw1AZf23zVK8nBoAq4yGduWAixkAf863vPJW56FVAIlXbvFyWmfuM4h/nYq/ccgMa1q67w8Mfk94b43pfnaUyvVInXrKvsKM/T0I7ZW7AEq1ydIAVHB+xQyAKQnMnRVl0NMNQNF39HINQEX9t3671fx1ZADsMho6NQC+nW/ZBarxT74qIF65zcveOq6j912If52L/yBv9+69xaD4ibj4bzP43eUlu/oSqtdD3MneF4T22pYD9uD8hhqAPZ5kGQag3Ax6QhhLzY/CLoCK+q9nu9X8VTYAKhkNnRgAP8+3TP47qvFPvP+/gXjlGu9ZIf5fqzt9Q/zVeFpXfqwYBM8wmdxczZz9ifpq5s0/DUJ7HRsAF87PbACGPaaXBqCSDHoiR36p+WFbDti2/wYNQKlCRuvcur7KBsDn8y3e/sePqxfSyj5KvKqYJ278sjemujdGEX+Hu//qrXNk9i0RSK6Tj6+ZTK7wfqe8mrlzy6eD0F5HBsCl8zMMQIknJ3dU0l5ZJa/U/HBsAIa1t2AALApB2RgAZ2tO7A2A7+dbX79qvDqmdVWz+M7riH/5vHhXfplMRNYo+qYi/HreH+UkQdF67BwRLD4hBshSJlNlPCEg/+vkegw8hvN3e5UNgIvnJw2AxVa62yppb3LO8htLvmN2YgCKtrewBmCExRbGdW5dX1sDIKsB+ny+Jeeunqsar5KZ/s8h/mXzXtAy+bMb6eZWUfxDSgbAVE84Vs+do+epf57JVD4vvjB7mPo7TVOiJp+2V8kAuHx+shqgxVa6xZW012QAhl0PZQNQur325YBdur5WBkC2Sz7p8P18u3npaarxSuvKXkh8ccx7UTzuv0LsntgX8R8m/ka9H2sDoH84ot/9x+q9c8bMfmJfrW3VTeJx5itMpjLeaXb2fVf1eiitaq5xe20NgAfnJ3erWGylW1xJe3UDUPx6qBgA6/Y6NwDlZjQsYQAGt5qKdvp7vvW8cfz3L3ufchXNdO5u4osqL79V3PH/2KrAUoOLf4te7bfZMvW//uGwfvcfNdUWrtfOGeRN+NHUD4qENeIx4vqXEH8HVdra1z3gZA2G+N52P7fX0gDIaoAenN+Ey2YeZvHaZHEl7dXXABS9HrYGwL7/nBmASjIaFjEA5vk7aAD8WkJ77tp7lWubiAVrg/UzEP/SvIEkSd87eUaupRHXtCnywvoxaADsnMIokwGINoL4m3nj2x6KiR0DlxReDSD+Knc2b2oXXXeI8p2NSL3p5/aWMgCFVfNT7xnnxfmZDECx1yaLK2mvfDde6lpYGgC1/lM3AJXWZx9iAIbO34IB8PF802Y99u+q8Sqezk0ivljynpLv+GWhsUbbzeaQF9H13DAAIbt3BGGTARjdaOJv5skKg2IV6b+LwPMk4m8T3G5+7Nx6CW7FDIAxXhI33R334vx0A1BqK93iStprWw64sv5TMwAuXF+zASg2fwtrAHw733peT/3Hde9TjVfD8v8j/vL4szSz8c7+jzbqVnaHPEPDDQPQbPXoP6Q7BMMARBpZ/IctyFnY/xExKX8mBucWxL9IoZa5a29TvR7HtG6NSOHwa3uHGgDzeBk0AC6fn74GoNRWusUVZdBzagCc9Z+9AXDp+hoGoNT8LewC8Ov8aF9zl+r8OLJ740jB+QfxpWCcXtXaVmdkxsqjrrq8CT1S5hlP7w0D0GIl/k26Oxhpel+A+Bf7EVkFZfY7fTX7C4j/IO8fMnCpXgeZjtOv7TUbgKHjpWAAPDg/uQvAQkQXV5RBz4kBcN5/1gZAVgN06fpKA2A1f23LAddwfmidm09TnRviqeNJDS3+HT39ybaV87WZy76VOv+ygxplDZrLvJjJAITtFv2ZDUCLcpagBu9s6UiTv/rD55Ozn/gvka3tHjFw/9HIC3LGZfInq/Zdsit7vF/baxiAYuOlsAbAg/OzLQdcSQY9VQNQXv9ts5pvYk5scOv6ymqAVvPXsQGo3vh7UXWRmr79r7XBxP8ZWR8h3tl79vhrFn28AcXaC55hACKWeq5/qcm0RxDxL5N34jfO2S+5YPOxA3UHCne4a/Z41F3nawhk4HJingTjT35srzQApcZLYReAB+fn2AA4yaCnYgDK779tVvND7BDZ4Npuk471z1nNX0cGoJrzI52bqhxYJu8eUcd5Sd4Ux0axFfi2RCb3C/Gk41tjF+QORz884cWU1vCZDEAI8feAJ14ZpDK5QxKZ/onxTO77YtBP0zK5bjERZIXCx4RR6BGPSbeICfSiXE0f5MleyAooAphq/yVaV1zjx/bKaoClrq9tOeAyz8+RAXCaQc/OAFTWf9us5segAXDh+modPVsta32oGoCqb1XLfVL97l/UKwmW+L8l00GLP/8mn9CI/79eLPJ9SN/pM0uMr4u1dP8XpNBP6t7dhH5UjRd1ku63CfH3B+/Er39r/4lnn7Xf+JkzRsotLk4P+T35/YlnnXHA4FFFnpP2ald3fFwEjrd9F9ymPTCx1PV1bAAUz0/ZAJSTQc/KAMhqgJX13zar8VwwAG7to3/HABSdb0oGoPri+rjT14q1nL9OeLLEN/E+4LxyhZ/OhucGL9G+9nbf3dlMEflaSrTXkQFwcH5KBqDcDHolDEDhHb1YXV1h/22zvL5yDYBbW00HDEDJ8WdrAGpxZ53On048gBcEHp0Dr+q8+Pz1n/HdY813DMCw9iobAIfnZ2sAKsmgV8QADL6jn/bgKRX23zar61vYBeDWVrqBNQClt+paGYDaPFbPqrwSIx7AQ/zhNSyvZM7zWgXzAQNQtL1KBqCM87M0ALIaYCUZ9IYYgD1ewxgGoPz+22ZZAtquHLCTrXTiHbPl+/NSBqBWa2IyuXOJB/AQf3jwLHjxdPZYXy1wHFgDULS9tgagzPMrZQAK+9vb195RUQY9kwEY9o5eGoDK+m+bpblzagCsMhralQMuZgBqt6DumWNaVzUTD+Ah/vDg2fDEbogH/bKAS+4CKNUmSwNQwfkVMwCDj+nnrrmzogx6ugEo+o5ergGoqP/Wb7e6vo4MgF1GQ6cGoIar6bV07gfEA3iIPzx4CjwXqtK5FsxtywF7cH5DDcAej+kNA1BuBj0hjCXXYMhdAJUVgtpudX2VDYBSngkHBqC2W+mel3VEiAfwEH948NSrBD7uj4yGDg2AC+dnNgDDHtNLA1BJBj2RI7/U9bA1Xva52rdbP9lRMACqGQ1VDUCN99HLSqLEA3h+Fn/l3X90Nrxq8WTCED+8w3VkAFw6P8MAFOu/whqACtorq+SVuh6ODcDwKnfbra6vrQFw8lhdxQDUPonOi6nujVHiATyf8ozU/8pJgqJ0Nrxq8UQAXV3rx7jKBsDF85MGwGIr3W2VtDc5Z/mNJRdgOjEARdtbWAMwwuJ6rnPvztrGAMhqgDXPoJe9gngAz8fiH1IyAKZ6wjE6G161eMmF+fG1foyrZADcTj/ctuagklXuurK3V5RBr3XFTaWux2B/l99/260NnUh17ZK4WhkA2S75pKPG6XOfLXX3TzyA5wPxN+r9WBsA/cMR/e4/RmfDqyYv3tm3qJZ3crYGwANzkpr+4Iklt9Jlcn+sKIOeWENQ8h19Jv+ditdM3Nr7vmJ9JbfBif//sluvdUoZAGP8yScdNc2dn8l9nfkLz6fi36JX+222TP2vfzis3/1HTbWF6Wx4VeFNuKLriEJp5RoFc0sDIKsBemBOxHv+x4vlVheicpYL7X1bVqkc2hZ5tyoMwNMurM7vLHr3n8ld6eaajmIGwDz+Bg1AbWpL/IH5C8+nvLB+DBoAO6cwymQAonQ2vGrztDlP/aRWwbyUASismp96zzivnkwk5675g14PfcTA3XP+h+Jz211q71/F4/ivyeqUBfFP5z8lMjAud7H/5sYXPrOfZI/pfnaUKPl6jfi3HW4umBxqAIaOv4IBqI34v26UtWX+wvMZL6LruWEAQnbvCMImAzCazoZXC56siiieAqyrRaGgYgZgsITxTXfHPX4ysUsKnSPhd9belwv15r3pvx3CVPxZ/PmGF7s5zAag2PgrrAGowXgR5zWZ+QvPhzxDww0D0Gz16D+kOwTDAETobHi15CU6N3xeBNid1S4UNNQAmM9v0AD4tz573fIMA1BqvBR2AVT//HJDk/4wf+H5gGc8vTcMQIuV+Dfp7mCk6X0BnQ2v5jyxAr612mJjNgBDz69gABDrmvCkAbAaL7blgD04v3hX/iTmLzwf8mImAxC2W/RnNgAtylmC6Gx4HvPGdG/cXwTaF6opNoYBKHZ+hTUAiHWteM9amkWnBqDy81vM/IXnU55hACKWeq5/qcm0RxDxh+crntxeVU2xSXZljy/5mLlj/ZGIdY14HT15q/GiZfLTq3h+wpRuOpj5C8+nvJjSGj6TAQgh/vD8yhMBd1a1xCbe2Xt2qfOT73uLLnJDrD3niXwG99gUHvptlc5vl5bJncD8hedjntruPZMBQPzh+ZZ38oxciwi8a6ohNtqcFZMtS9xmcmnEuvo87eZH/tWm8NDjVTq/a5m/8OqCV67w09nwqs1LdeWPEMH3lSrcaT5gdX4yb//AvnrEulq85NzVd1uNl3Edve+yfTLjwvmJRX/LJnXvbmL+wqs3Hp0Dz/c88Z73NO/Fq+fN1A+vOcTq/OQj4KJpbhFr9+/829dtnHhFx0csr0dX7htVOL8XxnT2vZ/5Cw/xp7Ph1YgnMtrN8Vq8krOfPN/u/FKZ3CEyBSxi7RnvLa1txa8SZ59/oMIakd95fH67RJKjE5m/8BB/OhteDXkTz7v0QHFXuN5T8erKPn1k98aRqq8m4uncJMH6dmLB5nO0WU98T5v52PcHD/F3+e+F/+/0aECeNF/ajKXf0C6b8mGlBaIL+/7Za3Miru8vmb/wEH86G54PeKlf3na0eFT/qpd3ruJ1w4+5Hv7niWu11NsnE9lH5Xt/rgc8xJ/OhucTXmL60i+JYP6mh4+t34ins8dyPfws/tkrPH4t0ScXfXI94CH+dDY8n/H0RYG7vHtnnd9qLPzievhO/L9W9Nq7J/7PjV245UNcD3j1Jv7Ku//obHh+54ma9hd4umBNVLjTOnOf4Xr4hydqRHxXXJu3PBT/v2uZ/n/iesCrM56R+l85SVCUzobnd55SHvjKxGF7PJM7d6/du/fmetSOd2wmFxOGb7bHj/1fT3b1Jbge8OpQ/ENKBsBUTzhGZ8MLAk/cqbdVYavaGpkD4KirLm/ielSPJ1Mwi7v+C0X//5/H13dHojN3KtcDXh2Kv1Hvx9oA6B+O6Hf/MTobXhB4cqW2EInbq5IuuGP9c9rc1R2Jmcu+mbjp3pT28/RHx9+0JCKFyukhvye3Nk4895L3Dh7i743KOyHdMzq+MHtYPN0fj3dlz9Gv6bYq5SE4j/kGrw7Fv0Wv9ttsmfpf/3BYv/uPmmoL09nwfM/Ti/U8TBIdeE5Z4jXS5cw3eHXIC+vHoAGwcwqjTAYgSmfDCxIv1b0xGu/K3Y8YwnNwXMZ8g1eHvIiu54YBCNm9IwibDMBoOhteEHlHT70trM1dextiCM/2nT+P/eHVJ8/QcMMANFs9+g/pDsEwABE6G16QeYlTJu2nta1qRQzhlVrtz4I/eHXKM57eGwagxUr8m3R3MNL0voDOhlcXPK11xc8RQ3hDjpe1hVmN+QGvTnkxkwEI2y36MxuAFuUsQXQ2vKBkDBxIHLMTMYQnszsmOrd8mvkBr455hgGIWOq5/qUm0x5BxB9eXfL01LFvIIYNzcum5m/+MPMDXp3zYkpr+EwGIIT4w6t3nkgWlBQi8FfEsBF52UcT83IHMj/gNQBPbfeeyQAg/vAagpfo2nSw9yVk4fmItyuRyf2Ckr7w4BVZA7BXmT90Nryg8qQYiHfBP9tjXQDiWo+8F8RTnxOZH/DgufhDZ8OrB168M3tc4ZUA4lqPvEfG3dr7PuYHPHiIPzx4RX+0uSven5i77hHEtW54u8RxrXzKw/yABw/xhwfPkldIGjR7xfVCbHYiroHmvSCrNTI/4MFD/OHBc8RL3rzkpES6byPiGjyeEP5uucCT8QwPHuIPD15ZvGNaVzUL0fmJZQlaxNpPvL5kV/Z4xjM8eIg/PHiu8LRb8x+IZ/K3Ida+5b0mS/ge2b1xJOMZHjxHzL3pHHjwFHjjMvmThdjkEWsf8dK5u7V076GMZ3jwnAm/nvdHOUlQlM6G1+i81Pynw1pXbvIeqYQR61rw/iQr+DGe4cErS/xDSgbAVE84RmfDgzfwE1+YPUxL5zqESL2FWFeV99d4V+6nx7RujTCe4cErS/yNej/WBkD/cES/+4/R2fDg7clLXtP9Sa1tVWuio+d1xNpDXjr350Qmf8GY7mdHMf7gwStb/Fv0ar/Nlqn/9Q+H9bv/qKm2MJ0ND94Q3sQrOj6izV09VYjXK4i/q7yceNLyb3JHBuMPHryKeGH9GDQAdk5hlMkAROlsePCsefGFz+wnHlFfJe5YX0L8K+Blcn/UMtkzjSx+jD948CriRXQ9NwxAyO4dQdhkAEbT2fDgqfNS3RujwghcLPemI/7KPFGtL/+AKM705b12796b8QcPnis8Q8MNA9Bs9eg/pDsEwwBE6Gx48MrniacByXg6t3CPnQOIv4mX2ypz9suFlYwXePBc5RlP7w0D0GIl/k26Oxhpel9AZ8OD5wJvTPfG/YUIni/Ebqn4c2dji3/Pq9rcNb+Jd276Umrp0hDjBR48T3gxkwEI2y36MxuAFuUsQXQ2PHiOeBOu6DpCm/3Ufyba1z0hBHFHY4h/z6uJuatvT854+KyJ5116IOMFHjzPeYYBiFjquf6lJtMeQcQfHrwq8FL/NfuDWufm08T77/lCMJ+vL/Hv7ZG7I7RpD56SOv2cdzNe4MGrKi+mtIbPZABCiD88eDXiicVvic4tn45nct8Xi+EWCRF9JkDiv1NkSVwr/rw5kc6fHp+/6hCuLzx4NeWp7d4zGQDEHx48P6UfzuQOEdvivi4Mwc+EuP5OHP1ClHfVWPzfKIh9JpfWuvKXyCp8x2ZyMa4vPHgB5JUr/HQ2PHjV5024+OcHa1PuSWozl30rOXv55cm5q+dq6b4/CGFeL4yCXFX/ZmXiv367+Pc/CZFfKT6zWOxiuEkk5PmBlu7/QmpR38etFu5xfeHBCy6PzoEHrw548o5cVsrTOnOfiaezx2oLs1q8M3ucFHEh6F+Md+VP0uZvPk6btvSE5NR7JqRuvHts4sr5n2CBHjx4iD+dAw8ePHjw4CH+dDY8ePDgwYOH+NPZ8ODBgwcPHuJPZ8ODBw8ePHiIPzx48ODBgwfPx+KvvPuPzoYHDx48ePDqgmek/ldOEhSls+HBgwcPHrzAi39IyQCY6gnH6Gx48ODBgwcv0OJv1PuxNgD6hyP63X+MzoYHDx48ePACK/4terXfZsvU//qHw/rdf9RUW5jOhgcPHjx48ILFC+vHoAGwcwqjTAYgSmfDgwcPHjx4geNFdD03DEDI7h1B2GQARtPZ8ODBgwcPXuB4hoYbBqDZ6tF/SHcIhgGI0Nnw4MGDBw9e4HjG03vDALRYiX+T7g5Gmt4X0Nnw4MGDBw9e8HgxkwEI2y36MxuAFuUsQXQ2PHjw4MGD5zeeYQAilnquf6nJtEcQ8YcHDx48ePCCy4spreEzGYAQ4g8PHjx48OAFnqe2e89kABB/ePDgwYMHr1F45Qo/nQ0PHjx48ODVB4/OgQcPHjx48BB/OgcePHjw4MFD/OlsePDgwYMHD/Gns+HBgwcPHjzEHx48ePDgwYOH+MODBw8ePHjw/Cj+yrv/6Gx48ODBgwevLnhG6n/lJEFROhsePHjw4MELvPiHlAyAqZ5wjM6GBw8ePHjwAi3+Rr0fawOgfzii3/3H6Gx48ODBgwcvsOLfolf7bbZM/a9/OKzf/UdNtYXpbHjw4MGDBy9YvLB+DBoAO6cwymQAonQ2PHjw4MGDFzheRNdzwwCE7N4RhE0GYDSdDQ8ePHjw4AWOZ2i4YQCarR79h3SHYBiACJ0NDx48ePDgBY5nPL03DECLlfg36e5gpOl9AZ0NDx48ePDgBY8XMxmAsN2iP7MBaFHOEkRnw4MHDx48eH7jGQYgYqnn+peaTHsEEX948ODBgwcvuLyY0ho+kwEIIf7w4MGDBw9e4Hlqu/dMBgDxhwcPHjx48BqFV67w09nw4MGDBw9effDoHHjw4MGDBw/xp3PgwYMHDx48xJ/OhgcPHjx48BB/OhsePHjw4MFD/OHBgwcPHjx4iD88ePDgwYMHz4/ir7z7j86GBw8ePHjw6oJnpP5XThIUpbPhwYMHDx68wIt/SMkAmOoJx+hsePDgwYMHL9Dib9T7sTYA+ocj+t1/jM6GBw8ePHjwAiv+LXq132bL1P/6h8P63X/UVFuYzoYHDx48ePCCxQvrx6ABsHMKo0wGIEpnw4MHDx48eIHjRXQ9NwxAyO4dQdhkAEbT2fDgwYMHD17geIaGGwag2erRf0h3CIYBiNDZ8ODBgwcPXuB4xtN7wwC0WIl/k+4ORpreF9DZ8ODBgwcPXvB4MZMBCNst+jMbgBblLEF0Njx48ODBg+c3nmEAIpZ6rn+pybRHEPGHBw8ePHjwgsuLKa3hMxmAEOIPDx48ePDgBZ6ntnvPZAAQf3jw4MGDB69ReOUKP50NDx48ePDg1QePzoEHDx48ePAQfzoHHjx48ODBQ/zpbHjw4MGDBw/xp7PhwYMHDx48xB8ePHjw4MGDh/jDgwcPHjx48Pwo/sq7/+hsePDgwYMHry54Rup/5SRBUTobHjx48ODBC7z4h5QMgKmecIzOhgcPHjx48AIt/ka9H2sDoH84ot/9x+hsePDgwYMHL7Di36JX+222TP2vfzis3/1HTbWF6Wx48ODBgwcvWLywfgwaADunMMpkAKJ0Njx48ODBgxc4XkTXc8MAhOzeEYRNBmA0nQ0PHjx48OAFjmdouGEAmq0e/Yd0h2AYgAidDQ8ePHjw4AWOZzy9NwxAi5X4N+nuYKTpfQGdDQ8ePHjw4AWPFzMZgLDdoj+zAWhRzhJEZ8ODBw8ePHh+4xkGIGKp5/qXmkx7BBF/ePDgwYMHL7i8mNIaPpMBCCH+8ODBgwcPXuB5arv3TAYA8YcHDx48ePAahVeu8NPZ8ODBgwcPXn3w6Bx48ODBgwcP8adz4MGDBw8ePMR/z19urhEQcyFdMDx48ODBgwevirxyfrm5RkDUhXTB8ODBgwcPHrwq8sr55RFTfuHRLqQLhgcPHjx48OBVkef0l+9tqhEwylRcYG948ODBgwcPXjB4BtPJL28x1QgIV5guGB48ePDgwYNXG16TapKgvU01AoyjucJfDg8ePHjw4MGrPi+kZABMH242HSEXfjk8ePDgwYMHrzY8JQPQNPTYq4IfePDgwYMHD54veHvbuYURpmPvCn85PHjw4MGDB88nvP8P3aAicJ9xEOMAAAAASUVORK5CYII=;" vertex="1" parent="1">
          <mxGeometry x="331" y="362" width="82" height="82" as="geometry" />
        </mxCell>
        <mxCell id="9g9j-pvKP1COG3EwqrGd-40" style="edgeStyle=orthogonalEdgeStyle;rounded=0;orthogonalLoop=1;jettySize=auto;html=1;exitX=0.5;exitY=1;exitDx=0;exitDy=0;entryX=1;entryY=0.5;entryDx=0;entryDy=0;" edge="1" parent="1" source="9g9j-pvKP1COG3EwqrGd-8" target="9g9j-pvKP1COG3EwqrGd-6">
          <mxGeometry relative="1" as="geometry" />
        </mxCell>
        <mxCell id="9g9j-pvKP1COG3EwqrGd-8" value="" style="strokeColor=#dddddd;shadow=1;strokeWidth=1;rounded=1;absoluteArcSize=1;arcSize=2;" vertex="1" parent="1">
          <mxGeometry x="500" y="201" width="140" height="60" as="geometry" />
        </mxCell>
        <mxCell id="9g9j-pvKP1COG3EwqrGd-9" value="Cloud&#xa;Storage" style="dashed=0;connectable=0;html=1;fillColor=#5184F3;strokeColor=none;shape=mxgraph.gcp2.hexIcon;prIcon=cloud_storage;part=1;labelPosition=right;verticalLabelPosition=middle;align=left;verticalAlign=middle;spacingLeft=5;fontColor=#999999;fontSize=12;" vertex="1" parent="9g9j-pvKP1COG3EwqrGd-8">
          <mxGeometry y="0.5" width="60" height="49.5" relative="1" as="geometry">
            <mxPoint x="5" y="-30" as="offset" />
          </mxGeometry>
        </mxCell>
        <mxCell id="9g9j-pvKP1COG3EwqrGd-39" style="edgeStyle=orthogonalEdgeStyle;rounded=0;orthogonalLoop=1;jettySize=auto;html=1;entryX=0;entryY=0.5;entryDx=0;entryDy=0;" edge="1" parent="1" source="9g9j-pvKP1COG3EwqrGd-11" target="9g9j-pvKP1COG3EwqrGd-8">
          <mxGeometry relative="1" as="geometry" />
        </mxCell>
        <mxCell id="9g9j-pvKP1COG3EwqrGd-42" style="edgeStyle=orthogonalEdgeStyle;rounded=0;orthogonalLoop=1;jettySize=auto;html=1;entryX=0;entryY=0.5;entryDx=0;entryDy=0;" edge="1" parent="1" source="9g9j-pvKP1COG3EwqrGd-11" target="9g9j-pvKP1COG3EwqrGd-6">
          <mxGeometry relative="1" as="geometry">
            <Array as="points">
              <mxPoint x="175" y="403" />
            </Array>
          </mxGeometry>
        </mxCell>
        <mxCell id="9g9j-pvKP1COG3EwqrGd-11" value="" style="strokeColor=#dddddd;shadow=1;strokeWidth=1;rounded=1;absoluteArcSize=1;arcSize=2;" vertex="1" parent="1">
          <mxGeometry x="110" y="202" width="130" height="58" as="geometry" />
        </mxCell>
        <mxCell id="9g9j-pvKP1COG3EwqrGd-12" value="BigQuery" style="dashed=0;connectable=0;html=1;fillColor=#5184F3;strokeColor=none;shape=mxgraph.gcp2.hexIcon;prIcon=bigquery;part=1;labelPosition=right;verticalLabelPosition=middle;align=left;verticalAlign=middle;spacingLeft=5;fontColor=#999999;fontSize=12;" vertex="1" parent="9g9j-pvKP1COG3EwqrGd-11">
          <mxGeometry y="0.5" width="60" height="49.5" relative="1" as="geometry">
            <mxPoint x="5" y="-30" as="offset" />
          </mxGeometry>
        </mxCell>
        <mxCell id="9g9j-pvKP1COG3EwqrGd-33" style="edgeStyle=orthogonalEdgeStyle;rounded=0;orthogonalLoop=1;jettySize=auto;html=1;exitX=0.5;exitY=1;exitDx=0;exitDy=0;exitPerimeter=0;" edge="1" parent="1" source="9g9j-pvKP1COG3EwqrGd-22" target="9g9j-pvKP1COG3EwqrGd-11">
          <mxGeometry relative="1" as="geometry" />
        </mxCell>
        <mxCell id="9g9j-pvKP1COG3EwqrGd-22" value="" style="verticalLabelPosition=bottom;html=1;fillColor=#28A8E0;verticalAlign=top;points=[[0.145,0.145,0],[0.8555,0.145,0],[0.855,0.855,0],[0.145,0.855,0],[0.5,0,0], [1,0.5,0], [0.5,1,0],[0,0.5,0]];pointerEvents=1;align=center;shape=mxgraph.cisco_safe.capability.policy_configuration;" vertex="1" parent="1">
          <mxGeometry x="145" y="41" width="60" height="59" as="geometry" />
        </mxCell>
        <mxCell id="9g9j-pvKP1COG3EwqrGd-23" value="&lt;b&gt;BQ Policy&lt;/b&gt;" style="text;html=1;align=center;verticalAlign=middle;resizable=0;points=[];autosize=1;" vertex="1" parent="1">
          <mxGeometry x="200" y="51" width="70" height="20" as="geometry" />
        </mxCell>
        <mxCell id="9g9j-pvKP1COG3EwqrGd-38" style="edgeStyle=orthogonalEdgeStyle;rounded=0;orthogonalLoop=1;jettySize=auto;html=1;entryX=0.5;entryY=0;entryDx=0;entryDy=0;" edge="1" parent="1" source="9g9j-pvKP1COG3EwqrGd-25" target="9g9j-pvKP1COG3EwqrGd-8">
          <mxGeometry relative="1" as="geometry" />
        </mxCell>
        <mxCell id="9g9j-pvKP1COG3EwqrGd-25" value="" style="verticalLabelPosition=bottom;html=1;fillColor=#28A8E0;verticalAlign=top;points=[[0.145,0.145,0],[0.8555,0.145,0],[0.855,0.855,0],[0.145,0.855,0],[0.5,0,0], [1,0.5,0], [0.5,1,0],[0,0.5,0]];pointerEvents=1;align=center;shape=mxgraph.cisco_safe.capability.policy_configuration;" vertex="1" parent="1">
          <mxGeometry x="540" y="41" width="60" height="59" as="geometry" />
        </mxCell>
        <mxCell id="9g9j-pvKP1COG3EwqrGd-27" value="&lt;b&gt;GCS Policy&lt;/b&gt;" style="text;html=1;align=center;verticalAlign=middle;resizable=0;points=[];autosize=1;" vertex="1" parent="1">
          <mxGeometry x="595" y="60.5" width="80" height="20" as="geometry" />
        </mxCell>
        <mxCell id="9g9j-pvKP1COG3EwqrGd-28" value="&lt;b&gt;DELETE : TRUE&lt;/b&gt;" style="text;html=1;align=center;verticalAlign=middle;resizable=0;points=[];autosize=1;" vertex="1" parent="1">
          <mxGeometry x="66" y="318" width="110" height="20" as="geometry" />
        </mxCell>
        <mxCell id="9g9j-pvKP1COG3EwqrGd-29" value="&lt;b&gt;DELETE : TRUE&lt;/b&gt;" style="text;html=1;align=center;verticalAlign=middle;resizable=0;points=[];autosize=1;" vertex="1" parent="1">
          <mxGeometry x="578" y="323" width="110" height="20" as="geometry" />
        </mxCell>
        <mxCell id="9g9j-pvKP1COG3EwqrGd-31" value="&lt;b&gt;Table&amp;nbsp; DELETE/EVICT : TRUE&lt;/b&gt;" style="text;html=1;align=center;verticalAlign=middle;resizable=0;points=[];autosize=1;strokeWidth=10;rounded=0;opacity=50;" vertex="1" parent="1">
          <mxGeometry x="282" y="182" width="180" height="20" as="geometry" />
        </mxCell>
      </root>
    </mxGraphModel>
  </diagram>
</mxfile>
